<svg width="48" height="54" viewBox="0 0 48 54" fill="none" xmlns="http://www.w3.org/2000/svg">
<path d="M22.5 41.0625H18C15.8 41.0625 14 43.0875 14 45.5625V46.125H12C11.18 46.125 10.5 46.89 10.5 47.8125C10.5 48.735 11.18 49.5 12 49.5H36C36.82 49.5 37.5 48.735 37.5 47.8125C37.5 46.89 36.82 46.125 36 46.125H34V45.5625C34 43.0875 32.2 41.0625 30 41.0625H25.5V35.91C25 35.9775 24.5 36 24 36C23.5 36 23 35.9775 22.5 35.91V41.0625Z" fill="white"/>
<path d="M36.96 26.19C38.28 25.6275 39.44 24.705 40.36 23.67C42.22 21.3525 43.44 18.585 43.44 15.345C43.44 12.105 41.18 9.5625 38.3 9.5625H37.18C36.5255 8.04618 35.5053 6.76743 34.2357 5.87227C32.9661 4.9771 31.4983 4.50158 30 4.5H18C14.84 4.5 12.12 6.57 10.82 9.5625H9.7C6.82 9.5625 4.56 12.105 4.56 15.345C4.56 18.585 5.78 21.3525 7.64 23.67C8.56 24.705 9.72 25.6275 11.04 26.19C12.0848 29.0924 13.8769 31.5771 16.1862 33.3251C18.4955 35.0732 21.2166 36.0047 24 36C29.88 36 34.88 31.95 36.96 26.19ZM29.68 19.0125L28.44 20.7225C28.24 20.97 28.1 21.465 28.12 21.8025L28.24 24.0075C28.32 25.3575 27.46 26.055 26.34 25.56L24.52 24.75C24.1805 24.6375 23.8195 24.6375 23.48 24.75L21.66 25.56C20.54 26.055 19.68 25.3575 19.76 24.0075L19.88 21.8025C19.8876 21.4117 19.7745 21.03 19.56 20.7225L18.32 19.0125C17.54 17.9775 17.88 16.83 19.04 16.4925L20.94 15.9525C21.24 15.8625 21.6 15.5475 21.76 15.255L22.82 13.41C23.48 12.2625 24.52 12.2625 25.18 13.41L26.24 15.255C26.4 15.5475 26.76 15.8625 27.06 15.9525L28.96 16.4925C30.12 16.83 30.46 17.9775 29.68 19.0125Z" fill="white"/>
</svg>
