<svg width="24" height="19" viewBox="0 0 24 19" fill="none" xmlns="http://www.w3.org/2000/svg">
<path d="M6.73 14.9281C7.55 14.2613 8.8 14.3143 9.52 15.0418L10.53 16.0648C11.34 16.8756 12.65 16.8756 13.46 16.0648L14.47 15.0418C15.19 14.3143 16.44 14.2613 17.26 14.9281C19.04 16.3679 20.49 15.8905 20.49 13.8748V5.33468C20.5 2.28085 19.56 1.5155 15.78 1.5155H8.22C4.44 1.5155 3.5 2.28085 3.5 5.33468V13.8672C3.5 15.8905 4.96 16.3603 6.73 14.9281Z" stroke="white" stroke-width="1.5" stroke-linecap="round" stroke-linejoin="round"/>
<path d="M8.09601 8.33557H8.10601" stroke="white" stroke-width="2" stroke-linecap="round" stroke-linejoin="round"/>
<path d="M10.898 8.33557H16.398" stroke="white" stroke-width="1.5" stroke-linecap="round" stroke-linejoin="round"/>
<path d="M8.09601 5.30444H8.10601" stroke="white" stroke-width="2" stroke-linecap="round" stroke-linejoin="round"/>
<path d="M10.898 5.30444H16.398" stroke="white" stroke-width="1.5" stroke-linecap="round" stroke-linejoin="round"/>
</svg>
