<svg width="26" height="26" viewBox="0 0 26 26" fill="none" xmlns="http://www.w3.org/2000/svg">
<path d="M11.6459 2.65418C12.3934 2.01501 13.6175 2.01501 14.3759 2.65418L16.0875 4.12751C16.4125 4.40918 17.0192 4.63668 17.4525 4.63668H19.2942C20.4425 4.63668 21.385 5.57918 21.385 6.72751V8.56918C21.385 8.99168 21.6125 9.60918 21.8942 9.93418L23.3675 11.6458C24.0067 12.3933 24.0067 13.6175 23.3675 14.3758L21.8942 16.0875C21.6125 16.4125 21.385 17.0192 21.385 17.4525V19.2942C21.385 20.4425 20.4425 21.385 19.2942 21.385H17.4525C17.03 21.385 16.4125 21.6125 16.0875 21.8942L14.3759 23.3675C13.6284 24.0067 12.4042 24.0067 11.6459 23.3675L9.9342 21.8942C9.6092 21.6125 9.00254 21.385 8.5692 21.385H6.69504C5.5467 21.385 4.6042 20.4425 4.6042 19.2942V17.4417C4.6042 17.0192 4.3767 16.4125 4.10587 16.0875L2.64337 14.365C2.01504 13.6175 2.01504 12.4042 2.64337 11.6567L4.10587 9.93418C4.3767 9.60918 4.6042 9.00251 4.6042 8.58001V6.72751C4.6042 5.57918 5.5467 4.63668 6.69504 4.63668H8.5692C8.9917 4.63668 9.6092 4.40918 9.9342 4.12751L11.6459 2.65418Z" stroke="#00D1FF" stroke-width="1.5" stroke-linecap="round" stroke-linejoin="round"/>
<path d="M10.7142 16.055L12.285 17.2684C12.4908 17.4742 12.9458 17.5717 13.2492 17.5717H15.1667C15.7733 17.5717 16.4342 17.1167 16.5858 16.51L17.7992 12.805C18.0483 12.1009 17.5933 11.4834 16.835 11.4834H14.8092C14.5058 11.4834 14.2567 11.2342 14.3 10.8767L14.5492 9.25169C14.6467 8.79669 14.3433 8.28753 13.8883 8.13586C13.4875 7.98419 12.9783 8.19002 12.7725 8.49336L10.6925 11.5809" stroke="#00D1FF" stroke-width="1.5" stroke-miterlimit="10"/>
<path d="M8.125 16.055V11.0933C8.125 10.3783 8.42833 10.1292 9.14333 10.1292H9.6525C10.3567 10.1292 10.6708 10.3783 10.6708 11.0933V16.055C10.6708 16.7591 10.3675 17.0191 9.6525 17.0191H9.14333C8.42833 17.0191 8.125 16.77 8.125 16.055Z" stroke="#00D1FF" stroke-width="1.5" stroke-linecap="round" stroke-linejoin="round"/>
</svg>
